<svg width="10" height="8" viewBox="0 0 10 8" fill="none" xmlns="http://www.w3.org/2000/svg">
<path d="M1.70711 3.29289C1.31658 2.90237 0.683417 2.90237 0.292893 3.29289C-0.0976311 3.68342 -0.0976311 4.31658 0.292893 4.70711L1.70711 3.29289ZM4 7L3.29289 7.70711C3.49156 7.90578 3.76464 8.0117 4.04531 7.99897C4.32599 7.98624 4.58835 7.85602 4.76822 7.64018L4 7ZM9.76822 1.64018C10.1218 1.21591 10.0645 0.585343 9.64018 0.231779C9.21591 -0.121785 8.58534 -0.0644614 8.23178 0.359816L9.76822 1.64018ZM0.292893 4.70711L3.29289 7.70711L4.70711 6.29289L1.70711 3.29289L0.292893 4.70711ZM4.76822 7.64018L9.76822 1.64018L8.23178 0.359816L3.23178 6.35982L4.76822 7.64018Z" fill="white"/>
</svg>
