<svg width="19" height="21" viewBox="0 0 19 21" fill="none" xmlns="http://www.w3.org/2000/svg">
<path d="M14 20V21C14.5523 21 15 20.5523 15 20H14ZM4 20L3.01942 19.8039C2.96066 20.0976 3.03672 20.4023 3.22666 20.634C3.4166 20.8657 3.70041 21 4 21V20ZM5 15L5.98058 15.1961C6.03852 14.9064 5.96541 14.606 5.78087 14.3753L5 15ZM1 9.99998L0.152002 9.46998C-0.073066 9.83008 -0.04615 10.2931 0.219131 10.6247L1 9.99998ZM6.5 1.40909L7.03688 0.56543C6.57673 0.272608 5.96681 0.402519 5.66593 0.857438L6.5 1.40909ZM17.5 8.40909L18.2887 9.0239C18.4619 8.80166 18.5334 8.51664 18.4854 8.23896C18.4375 7.96128 18.2746 7.71671 18.0369 7.56543L17.5 8.40909ZM14 13L13.5528 13.8944C13.9851 14.1105 14.51 13.9866 14.8 13.6L14 13ZM14.5 6.5L15.0369 5.65634L14.5 6.5ZM4.125 4.99998L3.29093 4.44832L3.28382 4.45906L3.277 4.46998L4.125 4.99998ZM6.8125 6.29543L6.37828 7.19624V7.19624L6.8125 6.29543ZM5 8.99998C4.44772 8.99998 4 9.44769 4 9.99998C4 10.5523 4.44772 11 5 11V8.99998ZM9.07152 15.3714C9.27664 15.8841 9.85861 16.1336 10.3714 15.9285C10.8842 15.7233 11.1336 15.1414 10.9285 14.6286L9.07152 15.3714ZM16 10.3333L15.2113 9.7185L15.2056 9.72585L15.2 9.73331L16 10.3333ZM14 17L13.2929 16.2929C13.1054 16.4804 13 16.7348 13 17H14ZM14 19H4V21H14V19ZM4.98058 20.1961L5.98058 15.1961L4.01942 14.8039L3.01942 19.8039L4.98058 20.1961ZM5.78087 14.3753L1.78087 9.37528L0.219131 10.6247L4.21913 15.6247L5.78087 14.3753ZM10.9631 5.43457L13.9631 7.34366L15.0369 5.65634L12.0369 3.74725L10.9631 5.43457ZM13.9631 7.34366L16.9631 9.25275L18.0369 7.56543L15.0369 5.65634L13.9631 7.34366ZM14.4472 12.1055L11.4472 10.6055L10.5528 12.3944L13.5528 13.8944L14.4472 12.1055ZM11.4472 10.6055L8.44721 9.10555L7.55279 10.8944L10.5528 12.3944L11.4472 10.6055ZM13.6808 5.92654L10.1808 10.9265L11.8192 12.0734L15.3192 7.07346L13.6808 5.92654ZM8.8489 10.5285L10.3489 8.11944L8.6511 7.06233L7.1511 9.47142L8.8489 10.5285ZM10.332 8.14559L12.332 5.14561L10.668 4.03621L8.66795 7.03618L10.332 8.14559ZM1.848 10.53L4.973 5.52998L3.277 4.46998L0.152002 9.46998L1.848 10.53ZM4.95907 5.55163L7.33407 1.96074L5.66593 0.857438L3.29093 4.44832L4.95907 5.55163ZM9.93422 6.69008L7.24672 5.39462L6.37828 7.19624L9.06578 8.49169L9.93422 6.69008ZM7.24672 5.39462L4.55922 4.09917L3.69078 5.90079L6.37828 7.19624L7.24672 5.39462ZM5.96312 2.25275L8.46312 3.84366L9.53688 2.15634L7.03688 0.56543L5.96312 2.25275ZM8.46312 3.84366L10.9631 5.43457L12.0369 3.74725L9.53688 2.15634L8.46312 3.84366ZM7.64565 6.84848L9.83315 3.55304L8.16685 2.44696L5.97935 5.74239L7.64565 6.84848ZM8 8.99998H5V11H8V8.99998ZM7.07152 10.3714L9.07152 15.3714L10.9285 14.6286L8.92848 9.62858L7.07152 10.3714ZM16.7113 7.79429L15.2113 9.7185L16.7887 10.9481L18.2887 9.0239L16.7113 7.79429ZM15.2 9.73331L13.2 12.4L14.8 13.6L16.8 10.9333L15.2 9.73331ZM15 10.3333V13.3431H17V10.3333H15ZM14.1213 15.4644L13.2929 16.2929L14.7071 17.7071L15.5355 16.8787L14.1213 15.4644ZM13 17V20H15V17H13ZM15 13.3431C15 14.1388 14.6839 14.9018 14.1213 15.4644L15.5355 16.8787C16.4732 15.941 17 14.6692 17 13.3431H15Z" fill="#26252B"/>
</svg>
