<svg width="16" height="16" viewBox="0 0 16 16" fill="none" xmlns="http://www.w3.org/2000/svg">
<path d="M12.7068 9.73887L15.1021 12.243C15.4779 12.6358 15.471 13.2569 15.0866 13.6413L13.1167 15.6113C13.0069 15.721 12.8739 15.8076 12.7213 15.8364C11.4791 16.0709 8.43665 15.5077 4.46447 11.5355C0.49229 7.56337 -0.0708444 4.52093 0.163656 3.2787C0.192455 3.12615 0.278978 2.99311 0.388753 2.88334L2.35867 0.913421C2.74308 0.529012 3.36417 0.52212 3.75702 0.897903L6.26115 3.29328C6.66653 3.68104 6.67369 4.32634 6.27702 4.72301L5.03887 5.96116C4.93341 6.06662 4.85198 6.19561 4.84684 6.34466C4.83189 6.77809 5.00352 7.83195 6.58579 9.41422C8.16805 10.9965 9.22192 11.1681 9.65536 11.1532C9.80441 11.148 9.93341 11.0666 10.0389 10.9612L11.277 9.72301C11.6737 9.32634 12.319 9.3335 12.7068 9.73887Z" fill="#EF1126"/>
</svg>
