<svg width="25" height="24" viewBox="0 0 25 24" fill="none" xmlns="http://www.w3.org/2000/svg">
<path d="M20.5 5H21C21 4.72386 20.7761 4.5 20.5 4.5V5ZM4.5 5V4.5C4.22386 4.5 4 4.72386 4 5H4.5ZM4.5 19H4C4 19.2761 4.22386 19.5 4.5 19.5V19ZM20.5 19V19.5C20.7761 19.5 21 19.2761 21 19H20.5ZM7 3C7 2.72386 6.77614 2.5 6.5 2.5C6.22386 2.5 6 2.72386 6 3H7ZM19 3C19 2.72386 18.7761 2.5 18.5 2.5C18.2239 2.5 18 2.72386 18 3H19ZM4.5 19.5H20.5V18.5H4.5V19.5ZM6.5 4.5H4.5V5.5H6.5V4.5ZM7 5V3H6V5H7ZM20.5 4.5H18.5V5.5H20.5V4.5ZM18.5 4.5H6.5V5.5H18.5V4.5ZM18 3V5H19V3H18ZM4 5V9H5V5H4ZM4 9V19H5V9H4ZM20 5V9H21V5H20ZM20 9V19H21V9H20ZM4.5 9.5H20.5V8.5H4.5V9.5Z" fill="#26252B"/>
</svg>
