<svg width="25" height="24" viewBox="0 0 25 24" fill="none" xmlns="http://www.w3.org/2000/svg">
<path d="M17.5 21V21.5C17.7761 21.5 18 21.2761 18 21H17.5ZM7.5 21L7.00971 20.9019C6.98033 21.0488 7.01836 21.2011 7.11333 21.317C7.2083 21.4328 7.3502 21.5 7.5 21.5V21ZM8.5 16L8.99029 16.098C9.01926 15.9532 8.9827 15.803 8.89043 15.6876L8.5 16ZM4.5 11L4.076 10.735C3.96347 10.915 3.97693 11.1465 4.10957 11.3123L4.5 11ZM10 2.40909L10.2684 1.98726C10.0384 1.84085 9.7334 1.90581 9.58296 2.13326L10 2.40909ZM21 9.40909L21.3943 9.71649C21.481 9.60537 21.5167 9.46286 21.4927 9.32402C21.4687 9.18518 21.3873 9.0629 21.2684 8.98726L21 9.40909ZM17.5 14L17.2764 14.4472C17.4925 14.5553 17.755 14.4933 17.9 14.3L17.5 14ZM18 7.5L18.2684 7.07817L18 7.5ZM7.625 5.99998L7.20782 5.72406L7.201 5.73498L7.625 5.99998ZM10.3125 7.29543L10.0954 7.74584L10.3125 7.29543ZM8.5 10.5C8.22386 10.5 8 10.7238 8 11C8 11.2761 8.22386 11.5 8.5 11.5V10.5ZM13.0358 16.1857C13.1383 16.4421 13.4293 16.5668 13.6857 16.4642C13.9421 16.3617 14.0668 16.0707 13.9642 15.8143L13.0358 16.1857ZM19.5 11.3333L19.1056 11.0259L19.1 11.0333L19.5 11.3333ZM17.5 18L17.1464 17.6464C17.0527 17.7402 17 17.8674 17 18H17.5ZM17.5 20.5H7.5V21.5H17.5V20.5ZM7.99029 21.098L8.99029 16.098L8.00971 15.9019L7.00971 20.9019L7.99029 21.098ZM8.89043 15.6876L4.89043 10.6876L4.10957 11.3123L8.10957 16.3123L8.89043 15.6876ZM14.7316 6.01274L17.7316 7.92183L18.2684 7.07817L15.2684 5.16908L14.7316 6.01274ZM17.7316 7.92183L20.7316 9.83092L21.2684 8.98726L18.2684 7.07817L17.7316 7.92183ZM17.7236 13.5528L14.7236 12.0528L14.2764 12.9472L17.2764 14.4472L17.7236 13.5528ZM14.7236 12.0528L11.7236 10.5528L11.2764 11.4472L14.2764 12.9472L14.7236 12.0528ZM17.5904 7.21327L14.0904 12.2132L14.9096 12.7867L18.4096 7.78673L17.5904 7.21327ZM11.9244 11.2643L13.4244 8.85517L12.5756 8.32661L11.0756 10.7357L11.9244 11.2643ZM13.416 8.86824L15.416 5.86826L14.584 5.31356L12.584 8.31353L13.416 8.86824ZM4.924 11.265L8.049 6.26498L7.201 5.73498L4.076 10.735L4.924 11.265ZM8.04204 6.2758L10.417 2.68492L9.58296 2.13326L7.20796 5.72415L8.04204 6.2758ZM13.2171 8.14048L10.5296 6.84503L10.0954 7.74584L12.7829 9.04129L13.2171 8.14048ZM10.5296 6.84503L7.84211 5.54957L7.40789 6.45038L10.0954 7.74584L10.5296 6.84503ZM9.73156 2.83092L12.2316 4.42183L12.7684 3.57817L10.2684 1.98726L9.73156 2.83092ZM12.2316 4.42183L14.7316 6.01274L15.2684 5.16908L12.7684 3.57817L12.2316 4.42183ZM10.7291 7.57195L12.9166 4.27652L12.0834 3.72348L9.89592 7.01891L10.7291 7.57195ZM11.5 10.5H8.5V11.5H11.5V10.5ZM11.0358 11.1857L13.0358 16.1857L13.9642 15.8143L11.9642 10.8143L11.0358 11.1857ZM20.6057 9.10169L19.1057 11.0259L19.8943 11.6407L21.3943 9.71649L20.6057 9.10169ZM19.1 11.0333L17.1 13.7L17.9 14.3L19.9 11.6333L19.1 11.0333ZM19 11.3333V14.3431H20V11.3333H19ZM17.9749 16.818L17.1464 17.6464L17.8536 18.3535L18.682 17.5251L17.9749 16.818ZM17 18V21H18V18H17ZM19 14.3431C19 15.2714 18.6313 16.1616 17.9749 16.818L18.682 17.5251C19.5259 16.6812 20 15.5366 20 14.3431H19Z" fill="#26252B"/>
</svg>
