<svg width="24" height="24" viewBox="0 0 24 24" fill="none" xmlns="http://www.w3.org/2000/svg">
<path d="M18 15L18 15.5L18 15ZM18 9L18.5 9C18.5 8.72386 18.2761 8.5 18 8.5L18 9ZM6 9L6 8.5C5.72386 8.5 5.5 8.72386 5.5 9L6 9ZM12 3L12 2.5L12 3ZM10 2.5C9.72386 2.5 9.5 2.72386 9.5 3C9.5 3.27614 9.72385 3.5 10 3.5L10 2.5ZM14 3.5C14.2761 3.5 14.5 3.27614 14.5 3C14.5 2.72386 14.2761 2.5 14 2.5L14 3.5ZM3 15L3 14.5C2.72386 14.5 2.5 14.7239 2.5 15L3 15ZM9 15L9.5 15C9.5 14.7239 9.27614 14.5 9 14.5L9 15ZM15 15L15 14.5C14.8674 14.5 14.7402 14.5527 14.6464 14.6464C14.5527 14.7402 14.5 14.8674 14.5 15L15 15ZM21 15L21.5 15C21.5 14.7239 21.2761 14.5 21 14.5L21 15ZM22 21.5C22.2761 21.5 22.5 21.2761 22.5 21C22.5 20.7239 22.2761 20.5 22 20.5L22 21.5ZM20 20.5C19.7239 20.5 19.5 20.7239 19.5 21C19.5 21.2761 19.7239 21.5 20 21.5L20 20.5ZM16 21.5C16.2761 21.5 16.5 21.2761 16.5 21C16.5 20.7239 16.2761 20.5 16 20.5L16 21.5ZM14 20.5C13.7239 20.5 13.5 20.7239 13.5 21C13.5 21.2761 13.7239 21.5 14 21.5L14 20.5ZM10 21.5C10.2761 21.5 10.5 21.2761 10.5 21C10.5 20.7239 10.2761 20.5 10 20.5L10 21.5ZM8 20.5C7.72386 20.5 7.5 20.7239 7.5 21C7.5 21.2761 7.72386 21.5 8 21.5L8 20.5ZM2 20.5C1.72386 20.5 1.5 20.7239 1.5 21C1.5 21.2761 1.72386 21.5 2 21.5L2 20.5ZM3.5 21.5C3.77614 21.5 4 21.2761 4 21C4 20.7239 3.77614 20.5 3.5 20.5L3.5 21.5ZM18.5 15L18.5 9L17.5 9L17.5 15L18.5 15ZM5.5 9L5.5 15L6.5 15L6.5 9L5.5 9ZM18 8.5L12 8.5L12 9.5L18 9.5L18 8.5ZM12 8.5L6 8.5L6 9.5L12 9.5L12 8.5ZM12.5 9L12.5 3L11.5 3L11.5 9L12.5 9ZM12 2.5L10 2.5L10 3.5L12 3.5L12 2.5ZM12 3.5L14 3.5L14 2.5L12 2.5L12 3.5ZM3 15.5L6 15.5L6 14.5L3 14.5L3 15.5ZM9 14.5L6 14.5L6 15.5L9 15.5L9 14.5ZM18 14.5L15 14.5L15 15.5L18 15.5L18 14.5ZM18 15.5L21 15.5L21 14.5L18 14.5L18 15.5ZM2.5 15L2.5 21L3.5 21L3.5 15L2.5 15ZM8.5 15L8.5 21L9.5 21L9.5 15L8.5 15ZM14.5 15L14.5 21L15.5 21L15.5 15L14.5 15ZM20.5 15L20.5 21L21.5 21L21.5 15L20.5 15ZM21 21.5L22 21.5L22 20.5L21 20.5L21 21.5ZM21 20.5L20 20.5L20 21.5L21 21.5L21 20.5ZM15 21.5L16 21.5L16 20.5L15 20.5L15 21.5ZM15 20.5L14 20.5L14 21.5L15 21.5L15 20.5ZM9 21.5L10 21.5L10 20.5L9 20.5L9 21.5ZM9 20.5L8 20.5L8 21.5L9 21.5L9 20.5ZM3 20.5L2 20.5L2 21.5L3 21.5L3 20.5ZM3 21.5L3.5 21.5L3.5 20.5L3 20.5L3 21.5Z" fill="#26252B"/>
</svg>
