<svg width="25" height="24" viewBox="0 0 25 24" fill="none" xmlns="http://www.w3.org/2000/svg">
<path d="M20.0528 21.2236C20.1763 21.4706 20.4766 21.5707 20.7236 21.4472C20.9706 21.3237 21.0707 21.0234 20.9472 20.7764L20.0528 21.2236ZM4.05279 20.7764C3.92929 21.0234 4.0294 21.3237 4.27639 21.4472C4.52338 21.5707 4.82372 21.4706 4.94721 21.2236L4.05279 20.7764ZM17 8C17 10.4853 14.9853 12.5 12.5 12.5V13.5C15.5376 13.5 18 11.0376 18 8H17ZM12.5 12.5C10.0147 12.5 8 10.4853 8 8H7C7 11.0376 9.46243 13.5 12.5 13.5V12.5ZM8 8C8 5.51472 10.0147 3.5 12.5 3.5V2.5C9.46243 2.5 7 4.96243 7 8H8ZM12.5 3.5C14.9853 3.5 17 5.51472 17 8H18C18 4.96243 15.5376 2.5 12.5 2.5V3.5ZM20.5 21C20.9472 20.7764 20.9471 20.7761 20.9469 20.7758C20.9469 20.7757 20.9467 20.7754 20.9466 20.7752C20.9464 20.7747 20.9461 20.7742 20.9458 20.7736C20.9452 20.7724 20.9445 20.7709 20.9436 20.7693C20.9419 20.7659 20.9397 20.7616 20.9369 20.7564C20.9314 20.7459 20.9239 20.7318 20.9142 20.7141C20.8948 20.6789 20.8668 20.6297 20.8297 20.5686C20.7556 20.4466 20.645 20.2767 20.4937 20.075C20.1914 19.6719 19.7253 19.1399 19.0623 18.6096C17.7301 17.5438 15.6215 16.5 12.5 16.5V17.5C15.3785 17.5 17.2699 18.4562 18.4377 19.3904C19.0247 19.8601 19.4336 20.3281 19.6938 20.675C19.8237 20.8483 19.9162 20.9909 19.9749 21.0876C20.0043 21.1359 20.0251 21.1727 20.038 21.196C20.0444 21.2077 20.0488 21.216 20.0512 21.2207C20.0525 21.223 20.0532 21.2244 20.0535 21.2249C20.0536 21.2252 20.0536 21.2252 20.0535 21.225C20.0534 21.2249 20.0533 21.2247 20.0532 21.2245C20.0532 21.2244 20.0531 21.2241 20.053 21.2241C20.0529 21.2239 20.0528 21.2236 20.5 21ZM12.5 16.5C9.37854 16.5 7.26992 17.5438 5.93765 18.6096C5.27469 19.1399 4.80859 19.6719 4.50625 20.075C4.355 20.2767 4.24437 20.4466 4.17026 20.5686C4.13319 20.6297 4.10522 20.6789 4.08582 20.7141C4.07612 20.7318 4.06856 20.7459 4.06307 20.7564C4.06033 20.7616 4.05811 20.7659 4.0564 20.7693C4.05554 20.7709 4.05481 20.7724 4.05421 20.7736C4.05391 20.7742 4.05364 20.7747 4.0534 20.7752C4.05329 20.7754 4.05313 20.7757 4.05307 20.7758C4.05293 20.7761 4.05279 20.7764 4.5 21C4.94721 21.2236 4.94709 21.2239 4.94697 21.2241C4.94695 21.2241 4.94684 21.2244 4.94678 21.2245C4.94666 21.2247 4.94658 21.2249 4.94652 21.225C4.94641 21.2252 4.94642 21.2252 4.94655 21.2249C4.9468 21.2244 4.94754 21.223 4.94877 21.2207C4.95122 21.216 4.95562 21.2077 4.96203 21.196C4.97486 21.1727 4.99571 21.1359 5.02505 21.0876C5.08375 20.9909 5.17625 20.8483 5.30625 20.675C5.56641 20.3281 5.97531 19.8601 6.56235 19.3904C7.73008 18.4562 9.62146 17.5 12.5 17.5V16.5Z" fill="#26252B"/>
</svg>
