<svg width="62" height="62" viewBox="0 0 62 62" fill="none" xmlns="http://www.w3.org/2000/svg">
<path d="M20.7071 24.2929C20.3166 23.9024 19.6834 23.9024 19.2929 24.2929C18.9024 24.6834 18.9024 25.3166 19.2929 25.7071L20.7071 24.2929ZM31 36L30.2929 36.7071C30.6834 37.0976 31.3166 37.0976 31.7071 36.7071L31 36ZM61.7071 6.70711C62.0976 6.31658 62.0976 5.68342 61.7071 5.29289C61.3166 4.90237 60.6834 4.90237 60.2929 5.29289L61.7071 6.70711ZM51.3 10.2898C51.6943 10.6764 52.3275 10.6701 52.7141 10.2757C53.1007 9.88136 53.0944 9.24823 52.7 8.8616L51.3 10.2898ZM57.8661 15.5234C57.5899 15.045 56.9784 14.8811 56.5001 15.1572C56.0217 15.4334 55.8578 16.0449 56.1339 16.5232L57.8661 15.5234ZM60 31C60 47.0163 47.0163 60 31 60V62C48.1208 62 62 48.1208 62 31H60ZM31 60C14.9837 60 2 47.0163 2 31H0C0 48.1208 13.8792 62 31 62V60ZM2 31C2 14.9837 14.9837 2 31 2V0C13.8792 0 0 13.8792 0 31H2ZM19.2929 25.7071L30.2929 36.7071L31.7071 35.2929L20.7071 24.2929L19.2929 25.7071ZM31.7071 36.7071L61.7071 6.70711L60.2929 5.29289L30.2929 35.2929L31.7071 36.7071ZM31 2C38.9042 2 46.0681 5.16088 51.3 10.2898L52.7 8.8616C47.1094 3.38103 39.4486 0 31 0V2ZM56.1339 16.5232C58.5928 20.7826 60 25.7255 60 31H62C62 25.3651 60.4957 20.0786 57.8661 15.5234L56.1339 16.5232Z" fill="#309128"/>
</svg>
