<svg width="24" height="24" viewBox="0 0 24 24" fill="none" xmlns="http://www.w3.org/2000/svg">
<path d="M7.34446 10.1729C7.58831 9.55057 7.96166 8.96729 8.46448 8.46447C8.96731 7.96164 9.55059 7.5883 10.1729 7.34444M7.34446 10.1729L4.37954 7.20795M7.34446 10.1729C6.8852 11.3448 6.8852 12.6552 7.34446 13.8271M4.37954 7.20795C4.73116 6.64992 5.15 6.1221 5.63606 5.63604C6.12211 5.14998 6.64993 4.73114 7.20797 4.37952M4.37954 7.20795C2.54018 10.1271 2.54018 13.8729 4.37954 16.7921M10.1729 7.34444L7.20797 4.37952M10.1729 7.34444C11.3448 6.88519 12.6552 6.88519 13.8271 7.34444M7.20797 4.37952C10.1271 2.54016 13.8729 2.54016 16.7921 4.37952M13.8271 7.34444C14.4494 7.5883 15.0327 7.96164 15.5356 8.46447C16.0384 8.96729 16.4117 9.55057 16.6556 10.1729M13.8271 7.34444L16.7921 4.37952M16.7921 4.37952C17.3501 4.73114 17.8779 5.14998 18.364 5.63604C18.85 6.1221 19.2689 6.64992 19.6205 7.20795M16.6556 10.1729L19.6205 7.20795M16.6556 10.1729C17.1148 11.3448 17.1148 12.6552 16.6556 13.8271M19.6205 7.20795C21.4599 10.1271 21.4599 13.8729 19.6205 16.7921M13.8271 16.6556C14.4494 16.4117 15.0327 16.0384 15.5356 15.5355C16.0384 15.0327 16.4117 14.4494 16.6556 13.8271M13.8271 16.6556L16.7921 19.6205M13.8271 16.6556C12.6552 17.1148 11.3448 17.1148 10.1729 16.6556M16.7921 19.6205C17.3501 19.2689 17.8779 18.85 18.364 18.364C18.85 17.8779 19.2689 17.3501 19.6205 16.7921M16.7921 19.6205C13.8729 21.4598 10.1271 21.4598 7.20797 19.6205M16.6556 13.8271L19.6205 16.7921M7.34446 13.8271C7.58831 14.4494 7.96166 15.0327 8.46448 15.5355C8.96731 16.0384 9.55059 16.4117 10.1729 16.6556M7.34446 13.8271L4.37954 16.7921M4.37954 16.7921C4.73116 17.3501 5.15 17.8779 5.63606 18.364C6.12211 18.85 6.64993 19.2689 7.20797 19.6205M10.1729 16.6556L7.20797 19.6205" stroke="#26252B" stroke-width="2"/>
</svg>
