<svg width="24" height="24" viewBox="0 0 24 24" fill="none" xmlns="http://www.w3.org/2000/svg">
<path d="M13.5 21C13.5 21.2761 13.7239 21.5 14 21.5C14.2761 21.5 14.5 21.2761 14.5 21H13.5ZM14 17L13.6464 16.6464C13.5527 16.7402 13.5 16.8674 13.5 17H14ZM16 15L16.3536 15.3536C16.4473 15.2598 16.5 15.1326 16.5 15H16ZM8 15H7.5C7.5 15.1326 7.55268 15.2598 7.64645 15.3536L8 15ZM10 17H10.5C10.5 16.8674 10.4473 16.7402 10.3536 16.6464L10 17ZM9.5 21C9.5 21.2761 9.72386 21.5 10 21.5C10.2761 21.5 10.5 21.2761 10.5 21H9.5ZM21 16L21.3536 16.3536C21.4473 16.2598 21.5 16.1326 21.5 16H21ZM19 18L18.6464 17.6464C18.5527 17.7402 18.5 17.8674 18.5 18H19ZM18.5 21C18.5 21.2761 18.7239 21.5 19 21.5C19.2761 21.5 19.5 21.2761 19.5 21H18.5ZM3 16H2.5C2.5 16.1326 2.55268 16.2598 2.64645 16.3536L3 16ZM5 18H5.5C5.5 17.8674 5.44732 17.7402 5.35355 17.6464L5 18ZM4.5 21C4.5 21.2761 4.72386 21.5 5 21.5C5.27614 21.5 5.5 21.2761 5.5 21H4.5ZM14.5 21V17H13.5V21H14.5ZM14.3536 17.3536L16.3536 15.3536L15.6464 14.6464L13.6464 16.6464L14.3536 17.3536ZM14 7.5H10V8.5H14V7.5ZM7.64645 15.3536L9.64645 17.3536L10.3536 16.6464L8.35355 14.6464L7.64645 15.3536ZM9.5 17V21H10.5V17H9.5ZM16.5 15V10H15.5V15H16.5ZM16 10.5H19V9.5H16V10.5ZM20.5 12V16H21.5V12H20.5ZM20.6464 15.6464L18.6464 17.6464L19.3536 18.3536L21.3536 16.3536L20.6464 15.6464ZM18.5 18V21H19.5V18H18.5ZM7.5 10V15H8.5V10H7.5ZM8 9.5H5V10.5H8V9.5ZM2.5 12V16H3.5V12H2.5ZM2.64645 16.3536L4.64645 18.3536L5.35355 17.6464L3.35355 15.6464L2.64645 16.3536ZM4.5 18V21H5.5V18H4.5ZM5 9.5C3.61929 9.5 2.5 10.6193 2.5 12H3.5C3.5 11.1716 4.17157 10.5 5 10.5V9.5ZM19 10.5C19.8284 10.5 20.5 11.1716 20.5 12H21.5C21.5 10.6193 20.3807 9.5 19 9.5V10.5ZM10 7.5C8.61929 7.5 7.5 8.61929 7.5 10H8.5C8.5 9.17157 9.17157 8.5 10 8.5V7.5ZM14 8.5C14.8284 8.5 15.5 9.17157 15.5 10H16.5C16.5 8.61929 15.3807 7.5 14 7.5V8.5Z" fill="#26252B"/>
<circle cx="17.5" cy="5.5" r="1.5" stroke="#26252B"/>
<circle cx="6.5" cy="5.5" r="1.5" stroke="#26252B"/>
<circle cx="12" cy="4" r="2" stroke="#26252B"/>
</svg>
