<svg width="18" height="18" viewBox="0 0 18 18" fill="none" xmlns="http://www.w3.org/2000/svg">
<path d="M17 3H18C18 2.44772 17.5523 2 17 2V3ZM1 3V2C0.447715 2 0 2.44772 0 3H1ZM1 17H0C0 17.5523 0.447715 18 1 18L1 17ZM17 17V18C17.5523 18 18 17.5523 18 17H17ZM4 1C4 0.447715 3.55228 0 3 0C2.44772 0 2 0.447715 2 1H4ZM16 1C16 0.447715 15.5523 0 15 0C14.4477 0 14 0.447715 14 1H16ZM1 18H17V16H1V18ZM3 2H1V4H3V2ZM4 3V1H2V3H4ZM17 2H15V4H17V2ZM15 2H3V4H15V2ZM14 1V3H16V1H14ZM0 3V7H2V3H0ZM0 7V17H2V7H0ZM16 3V7H18V3H16ZM16 7V17H18V7H16ZM1 8H17V6H1V8Z" fill="#26252B"/>
</svg>
