<svg width="56" height="28" viewBox="0 0 56 28" fill="none" xmlns="http://www.w3.org/2000/svg">
<path d="M34.3122 10.2022L34.7651 9.56047C35.0197 9.67329 35.2508 9.69479 35.4983 9.66979C35.6197 9.65741 35.7111 9.62307 35.7213 9.55767C35.7335 9.47708 35.6033 9.45535 35.3932 9.42218L35.2393 9.39812C34.7776 9.32571 34.4809 9.172 34.552 8.71322C34.6471 8.09817 35.1665 7.64313 35.8655 7.57235C36.3118 7.52703 36.6793 7.59408 36.9207 7.7632L36.417 8.45463C36.2254 8.3647 36.0253 8.33036 35.8069 8.35279C35.6661 8.36704 35.5707 8.39647 35.5622 8.45183C35.5521 8.51747 35.6721 8.54504 35.8448 8.5719L35.9939 8.59666C36.4831 8.67608 36.7979 8.86763 36.7174 9.38691C36.6294 9.95688 36.0814 10.3799 35.363 10.4528C34.926 10.4972 34.5606 10.4199 34.3122 10.2022Z" fill="#EF1126"/>
<path d="M39.1982 8.64388C39.2504 8.30587 39.0874 8.094 38.7959 8.12343C38.4999 8.15357 38.2659 8.40071 38.2121 8.749C38.159 9.09168 38.3222 9.30355 38.6181 9.27342C38.9097 9.24398 39.1445 8.99147 39.1982 8.64388ZM40.1999 8.53222C40.0658 9.39932 39.3977 10.0431 38.7033 10.1137C38.4025 10.1443 38.1818 10.0571 38.0376 9.87866L37.8263 11.2452L36.8556 11.3438L37.4556 7.46073L38.3926 7.36566L38.3584 7.6469C38.5669 7.41237 38.8321 7.27105 39.1477 7.23905C39.8421 7.16874 40.3322 7.67493 40.1999 8.53222Z" fill="#EF1126"/>
<path d="M42.4605 8.31768C42.5143 7.96963 42.3553 7.76243 42.0637 7.79186C41.7729 7.8213 41.5388 8.06867 41.4848 8.41673C41.4319 8.75941 41.5951 8.97128 41.8862 8.94184C42.1775 8.91218 42.4077 8.66036 42.4605 8.31768ZM40.485 8.5181C40.6184 7.65591 41.3038 7.0203 42.202 6.9292C43.0905 6.8388 43.5986 7.35341 43.4654 8.2156C43.332 9.07803 42.6464 9.7134 41.7579 9.80357C40.8596 9.89467 40.3518 9.38053 40.485 8.5181Z" fill="#EF1126"/>
<path d="M45.9559 6.54803L45.7491 7.4824C45.2832 7.52982 44.8952 7.78257 44.8476 8.09021L44.6357 9.46187L43.665 9.56045L44.0937 6.78699L45.0304 6.69192L44.9974 6.99793C45.25 6.75359 45.5866 6.58563 45.9559 6.54803Z" fill="#EF1126"/>
<path d="M47.8333 8.25366L47.7087 9.06049C47.4704 9.17892 47.2015 9.2511 46.9732 9.27423C46.4295 9.32936 46.1207 8.9785 46.2112 8.39335L46.37 7.36483L45.9526 7.40711L46.0796 6.58533L46.4972 6.54282L46.6228 5.73084L47.5935 5.63227L47.4679 6.44424L48.0845 6.38187L47.9573 7.20365L47.3407 7.26626L47.2144 8.08313C47.1849 8.27468 47.2714 8.39522 47.4268 8.37933C47.5531 8.36648 47.6879 8.32794 47.8333 8.25366Z" fill="#EF1126"/>
<path d="M53.602 0.243405L51.6765 12.7362L54.0748 12.4928L56 0L53.602 0.243405Z" fill="#EF1126"/>
<path d="M27.954 3.25935L27.4819 6.31381L29.88 6.07041L30.352 3.01594L27.954 3.25935Z" fill="#EF1126"/>
<path d="M56 0L28.0171 2.84796L27.6362 5.31331L55.619 2.4651L56 0Z" fill="#EF1126"/>
<path d="M37.9832 12.6974L35.7837 15.3466L53.9208 13.5005L54.3016 11.0352L37.9832 12.6974Z" fill="#EF1126"/>
<path d="M3.16766 13.7556L4.32028 13.6386C5.01858 13.5676 5.54399 13.1334 5.63194 12.5653C5.71966 11.9972 5.41864 11.6472 4.84799 11.7052L3.46291 11.8458L3.16766 13.7556ZM3.89783 15.7045L2.85002 15.8108L2.39802 18.7361L0 18.9795L1.38253 10.0338L5.4221 9.62384C7.30788 9.4323 8.37808 10.5136 8.09968 12.3148C7.93162 13.4029 7.28295 14.3373 6.32956 14.9458L7.92747 18.1748L5.122 18.4598L3.89783 15.7045Z" fill="#26252B"/>
<path d="M15.6705 15.366L15.3529 17.4211L8.88042 18.0782L10.2629 9.13229L16.6537 8.48383L16.336 10.539L12.3433 10.9443L12.1342 12.2982L15.6846 11.9377L15.3672 13.9927L11.8165 14.3531L11.5961 15.7797L15.6705 15.366Z" fill="#26252B"/>
<path d="M21.8993 13.5318L21.3757 11.0624L20.0484 13.7198L21.8993 13.5318ZM22.3268 15.5115L18.974 15.8518L18.3431 17.1177L15.7821 17.3776L20.7386 8.06916L22.9619 7.84328L25.1415 16.4274L22.5803 16.6874L22.3268 15.5115Z" fill="#26252B"/>
<path d="M32.9384 13.6131L32.6207 15.6683L25.9313 16.3473L27.3138 7.40161L29.7116 7.1582L28.647 14.0488L32.9384 13.6131Z" fill="#26252B"/>
<path d="M13.7175 18.559L6.36027 19.3058L6.04263 21.3612L8.52237 21.1094L7.45748 28L9.8555 27.7566L10.9204 20.866L13.3999 20.6142L13.7175 18.559Z" fill="#26252B"/>
<path d="M15.8087 23.9274L17.136 21.2702L17.6596 23.7395L15.8087 23.9274ZM16.4987 18.2767L11.5424 27.5852L14.1032 27.3252L14.7343 26.0594L18.0869 25.719L18.3408 26.8952L20.9018 26.6352L18.7219 18.0511L16.4987 18.2767Z" fill="#26252B"/>
<path d="M25.472 17.3659L23.074 17.6093L21.6917 26.555L27.6283 25.9523L27.946 23.8971L24.4073 24.2564L25.472 17.3659Z" fill="#26252B"/>
<path d="M25.9313 16.3473L32.6207 15.6683L33.0018 13.2031L26.3123 13.8822L25.9313 16.3473Z" fill="#26252B"/>
<path d="M34.9026 16.408L31.957 19.956L33.0007 13.2031L30.6026 13.4467L28.6866 25.8449L31.0846 25.6015L31.6301 22.0717L31.6417 22.0703L33.7038 25.3357L36.5675 25.0449L33.7848 20.8056L37.7224 16.1216L34.9026 16.408Z" fill="#26252B"/>
</svg>
