<svg width="24" height="24" viewBox="0 0 24 24" fill="none" xmlns="http://www.w3.org/2000/svg">
<path d="M19.2929 20.7071C19.6834 21.0976 20.3166 21.0976 20.7071 20.7071C21.0976 20.3166 21.0976 19.6834 20.7071 19.2929L19.2929 20.7071ZM17.7071 16.2929C17.3166 15.9024 16.6834 15.9024 16.2929 16.2929C15.9024 16.6834 15.9024 17.3166 16.2929 17.7071L17.7071 16.2929ZM16 10.5C16 13.5376 13.5376 16 10.5 16V18C14.6421 18 18 14.6421 18 10.5H16ZM10.5 16C7.46243 16 5 13.5376 5 10.5H3C3 14.6421 6.35786 18 10.5 18V16ZM5 10.5C5 7.46243 7.46243 5 10.5 5V3C6.35786 3 3 6.35786 3 10.5H5ZM10.5 5C13.5376 5 16 7.46243 16 10.5H18C18 6.35786 14.6421 3 10.5 3V5ZM20.7071 19.2929L17.7071 16.2929L16.2929 17.7071L19.2929 20.7071L20.7071 19.2929Z" fill="#26252B"/>
</svg>
