<svg width="18" height="19" viewBox="0 0 18 19" fill="none" xmlns="http://www.w3.org/2000/svg">
<path d="M17 1H18C18 0.447715 17.5523 0 17 0V1ZM1 1V0C0.447715 0 0 0.447715 0 1L1 1ZM1 14H0C0 14.5523 0.447715 15 1 15L1 14ZM17 14V15C17.5523 15 18 14.5523 18 14H17ZM9 14L9.70711 13.2929C9.51957 13.1054 9.26522 13 9 13V14ZM13 18L12.2929 18.7071C12.5789 18.9931 13.009 19.0787 13.3827 18.9239C13.7564 18.7691 14 18.4045 14 18H13ZM13 14V13C12.4477 13 12 13.4477 12 14H13ZM17 0H1V2H17V0ZM16 1V14H18V1H16ZM0 1V14H2V1H0ZM1 15H9V13H1V15ZM8.29289 14.7071L12.2929 18.7071L13.7071 17.2929L9.70711 13.2929L8.29289 14.7071ZM14 18V14H12V18H14ZM13 15H17V13H13V15Z" fill="#26252B"/>
</svg>
