<svg width="25" height="24" viewBox="0 0 25 24" fill="none" xmlns="http://www.w3.org/2000/svg">
<path d="M5.5 5.5C5.22386 5.5 5 5.72386 5 6C5 6.27614 5.22386 6.5 5.5 6.5V5.5ZM6.5 6.5C6.77614 6.5 7 6.27614 7 6C7 5.72386 6.77614 5.5 6.5 5.5V6.5ZM9.5 5.5C9.22386 5.5 9 5.72386 9 6C9 6.27614 9.22386 6.5 9.5 6.5V5.5ZM19.5 6.5C19.7761 6.5 20 6.27614 20 6C20 5.72386 19.7761 5.5 19.5 5.5V6.5ZM5.5 9.5C5.22386 9.5 5 9.72386 5 10C5 10.2761 5.22386 10.5 5.5 10.5V9.5ZM6.5 10.5C6.77614 10.5 7 10.2761 7 10C7 9.72386 6.77614 9.5 6.5 9.5V10.5ZM9.5 9.5C9.22386 9.5 9 9.72386 9 10C9 10.2761 9.22386 10.5 9.5 10.5V9.5ZM19.5 10.5C19.7761 10.5 20 10.2761 20 10C20 9.72386 19.7761 9.5 19.5 9.5V10.5ZM5.5 13.5C5.22386 13.5 5 13.7239 5 14C5 14.2761 5.22386 14.5 5.5 14.5V13.5ZM6.5 14.5C6.77614 14.5 7 14.2761 7 14C7 13.7239 6.77614 13.5 6.5 13.5V14.5ZM9.5 13.5C9.22386 13.5 9 13.7239 9 14C9 14.2761 9.22386 14.5 9.5 14.5V13.5ZM19.5 14.5C19.7761 14.5 20 14.2761 20 14C20 13.7239 19.7761 13.5 19.5 13.5V14.5ZM5.5 17.5C5.22386 17.5 5 17.7239 5 18C5 18.2761 5.22386 18.5 5.5 18.5V17.5ZM6.5 18.5C6.77614 18.5 7 18.2761 7 18C7 17.7239 6.77614 17.5 6.5 17.5V18.5ZM9.5 17.5C9.22386 17.5 9 17.7239 9 18C9 18.2761 9.22386 18.5 9.5 18.5V17.5ZM19.5 18.5C19.7761 18.5 20 18.2761 20 18C20 17.7239 19.7761 17.5 19.5 17.5V18.5ZM5.5 6.5H6.5V5.5H5.5V6.5ZM9.5 6.5H19.5V5.5H9.5V6.5ZM5.5 10.5H6.5V9.5H5.5V10.5ZM9.5 10.5H19.5V9.5H9.5V10.5ZM5.5 14.5H6.5V13.5H5.5V14.5ZM9.5 14.5H19.5V13.5H9.5V14.5ZM5.5 18.5H6.5V17.5H5.5V18.5ZM9.5 18.5H19.5V17.5H9.5V18.5Z" fill="#26252B"/>
</svg>
